<svg width="281" height="213" viewBox="0 0 281 213" fill="none" xmlns="http://www.w3.org/2000/svg">
<path d="M152.898 68.5053C154.196 70.7523 154.24 73.5105 153.015 75.7977L140.049 100L127.083 75.7977C125.858 73.5105 125.902 70.7523 127.199 68.5053L128.863 65.6249C129.086 65.2382 129.499 65 129.945 65H150.152C150.599 65 151.012 65.2382 151.235 65.6249L152.898 68.5053Z" fill="white"/>
<path d="M146.905 58.125C147.386 58.9583 146.784 60 145.822 60H134.276C133.313 60 132.712 58.9583 133.193 58.125L138.966 48.1251C139.447 47.2917 140.65 47.2917 141.131 48.1251L146.905 58.125Z" fill="white"/>
<path d="M140.049 2.89296e-07C141.48 -0.000521708 142.912 0.705362 143.728 2.12036L168.734 45.4626C172.483 51.9627 167.762 59.9979 160.313 59.9988H155.204C154.758 59.9988 154.345 59.7605 154.122 59.3738L141.131 36.8749C140.65 36.0416 139.447 36.0416 138.966 36.8749L125.976 59.3738C125.753 59.7605 125.34 59.9988 124.894 59.9988H119.785C112.336 59.9978 107.615 51.9627 111.364 45.4626L136.37 2.12036C137.186 0.705385 138.618 -0.00048422 140.049 2.89296e-07Z" fill="white"/>
<path d="M0 152.181L13.9942 116.56H21.0676L34.8583 152.181H28.2937L24.6298 142.207H10.0249L6.361 152.181H0ZM11.806 137.424H22.9505L17.3528 122.361L11.806 137.424Z" fill="white"/>
<path d="M39.4517 152.181V116.56H45.5583V146.889H64.5395V152.181H39.4517Z" fill="white"/>
<path d="M71.3064 152.181V116.56H87.2344C89.6431 116.56 91.7295 117.035 93.4936 117.985C95.2916 118.901 96.6826 120.19 97.6664 121.852C98.6503 123.514 99.1422 125.448 99.1422 127.653C99.1422 129.757 98.6503 131.64 97.6664 133.302C96.6826 134.964 95.2916 136.27 93.4936 137.22C91.7295 138.136 89.6431 138.594 87.2344 138.594H77.413V152.181H71.3064ZM77.413 133.607H86.2675C88.4387 133.607 90.1011 133.064 91.2545 131.979C92.408 130.859 92.9847 129.401 92.9847 127.602C92.9847 125.838 92.408 124.43 91.2545 123.379C90.1011 122.293 88.4557 121.75 86.3184 121.75H77.413V133.607Z" fill="white"/>
<path d="M105.59 152.181V116.56H111.697V131.521H129.406V116.56H135.512V152.181H129.406V136.966H111.697V152.181H105.59Z" fill="white"/>
<path d="M139.843 152.181L153.837 116.56H160.91L167.806 134.371L174.701 152.181H168.136L164.472 142.207H149.868L146.204 152.181H139.843ZM151.649 137.424H162.793L157.195 122.361L151.649 137.424Z" fill="white"/>
<path d="M187.114 152.181V121.852H175.207V116.56H205.129V121.852H193.221V152.181H187.114Z" fill="white"/>
<path d="M225.009 152.741C222.498 152.741 220.14 152.283 217.935 151.367C215.764 150.417 213.847 149.111 212.185 147.449C210.556 145.753 209.284 143.802 208.368 141.597C207.452 139.358 206.994 136.949 206.994 134.371C206.994 131.792 207.452 129.401 208.368 127.195C209.284 124.956 210.556 123.006 212.185 121.343C213.847 119.647 215.764 118.341 217.935 117.425C220.14 116.475 222.498 116 225.009 116C227.519 116 229.86 116.475 232.031 117.425C234.236 118.341 236.153 119.647 237.781 121.343C239.444 123.006 240.733 124.956 241.649 127.195C242.565 129.401 243.023 131.792 243.023 134.371C243.023 136.949 242.565 139.358 241.649 141.597C240.733 143.802 239.444 145.753 237.781 147.449C236.153 149.111 234.236 150.417 232.031 151.367C229.86 152.283 227.519 152.741 225.009 152.741ZM225.009 147.245C226.671 147.245 228.214 146.923 229.639 146.278C231.064 145.634 232.302 144.735 233.354 143.581C234.44 142.394 235.271 141.02 235.848 139.459C236.458 137.899 236.764 136.203 236.764 134.371C236.764 132.539 236.458 130.842 235.848 129.282C235.271 127.721 234.44 126.364 233.354 125.211C232.302 124.023 231.064 123.107 229.639 122.463C228.214 121.818 226.671 121.496 225.009 121.496C223.346 121.496 221.803 121.818 220.378 122.463C218.953 123.107 217.698 124.023 216.612 125.211C215.56 126.364 214.729 127.721 214.118 129.282C213.508 130.842 213.202 132.539 213.202 134.371C213.202 136.203 213.508 137.899 214.118 139.459C214.729 141.02 215.56 142.394 216.612 143.581C217.698 144.735 218.953 145.634 220.378 146.278C221.803 146.923 223.346 147.245 225.009 147.245Z" fill="white"/>
<path d="M249.919 152.181V116.56H255.873L274.447 142.462L274.346 116.56H280.096V152.181H274.651L255.568 125.567L255.67 152.181H249.919Z" fill="white"/>
<path d="M82.4529 183.698C80.7356 183.698 79.1313 183.394 77.6401 182.786C76.1488 182.156 74.8382 181.289 73.7085 180.185C72.6013 179.06 71.7314 177.765 71.0987 176.302C70.4886 174.816 70.1836 173.217 70.1836 171.506C70.1836 169.795 70.4886 168.207 71.0987 166.744C71.7314 165.258 72.6013 163.963 73.7085 162.86C74.8382 161.734 76.1488 160.868 77.6401 160.26C79.1313 159.629 80.7356 159.314 82.4529 159.314C83.673 159.314 84.848 159.483 85.9777 159.821C87.1075 160.158 88.1582 160.642 89.1298 161.273C90.124 161.881 90.9826 162.635 91.7056 163.536L88.9942 166.17C88.1582 165.112 87.1753 164.312 86.0455 163.772C84.9158 163.232 83.7182 162.961 82.4529 162.961C81.3005 162.961 80.2272 163.175 79.233 163.603C78.2614 164.031 77.4028 164.639 76.6572 165.427C75.9341 166.192 75.3692 167.093 74.9625 168.129C74.5558 169.164 74.3524 170.29 74.3524 171.506C74.3524 172.722 74.5558 173.847 74.9625 174.883C75.3692 175.919 75.9341 176.831 76.6572 177.619C77.4028 178.384 78.2614 178.981 79.233 179.409C80.2272 179.836 81.3005 180.05 82.4529 180.05C83.7182 180.05 84.9158 179.78 86.0455 179.24C87.1753 178.677 88.1582 177.878 88.9942 176.842L91.7056 179.476C90.9826 180.354 90.124 181.109 89.1298 181.739C88.1582 182.369 87.1075 182.853 85.9777 183.191C84.848 183.529 83.673 183.698 82.4529 183.698Z" fill="white"/>
<path d="M93.1514 183.326L102.472 159.685H107.183L116.368 183.326H111.996L109.556 176.707H99.8283L97.388 183.326H93.1514ZM101.015 173.532H108.437L104.709 163.536L101.015 173.532Z" fill="white"/>
<path d="M119.427 183.326V159.685H130.036C131.64 159.685 133.03 160.001 134.205 160.631C135.402 161.239 136.329 162.095 136.984 163.198C137.639 164.301 137.967 165.584 137.967 167.048C137.967 168.444 137.639 169.693 136.984 170.797C136.329 171.9 135.402 172.767 134.205 173.397C133.03 174.005 131.64 174.309 130.036 174.309H123.495V183.326H119.427ZM123.495 170.999H129.392C130.838 170.999 131.945 170.639 132.714 169.919C133.482 169.176 133.866 168.207 133.866 167.014C133.866 165.843 133.482 164.909 132.714 164.211C131.945 163.491 130.849 163.13 129.426 163.13H123.495V170.999Z" fill="white"/>
<path d="M142.262 183.326V159.685H146.329V183.326H142.262Z" fill="white"/>
<path d="M157.795 183.326V163.198H149.864V159.685H169.794V163.198H161.863V183.326H157.795Z" fill="white"/>
<path d="M166.928 183.326L176.249 159.685H180.96L190.145 183.326H185.773L183.332 176.707H173.605L171.165 183.326H166.928ZM174.791 173.532H182.214L178.486 163.536L174.791 173.532Z" fill="white"/>
<path d="M193.204 183.326V159.685H197.271V179.814H209.914V183.326H193.204Z" fill="white"/>
<path d="M79.9844 195.661C79.9844 192.684 82.3976 190.271 85.3744 190.271H146.267V212.11H85.3744C82.3976 212.11 79.9844 209.697 79.9844 206.72V195.661Z" fill="#777777" fill-opacity="0.1"/>
<path d="M85.374 190.608H145.93V211.774H85.374C82.5834 211.774 80.3213 209.511 80.3213 206.72V195.661C80.3215 192.87 82.5835 190.608 85.374 190.608Z" stroke="#9CA3AF" stroke-opacity="0.6" stroke-width="0.673748"/>
<path d="M85.375 205.826V196.393H86.7494L92.0182 203.4V196.393H93.3522V205.826H92.1125L86.7225 198.603V205.826H85.375Z" fill="#9CA3AF"/>
<path d="M94.3406 205.826L98.2349 196.393H99.9057L103.76 205.826H102.223L101.132 203.063H96.9143L95.8094 205.826H94.3406ZM97.3725 201.891H100.674L99.0299 197.741L97.3725 201.891Z" fill="#9CA3AF"/>
<path d="M108.123 205.961C107.368 205.961 106.641 205.812 105.94 205.516C105.239 205.219 104.62 204.802 104.081 204.263L104.943 203.266C105.455 203.769 105.976 204.141 106.506 204.384C107.045 204.627 107.607 204.748 108.19 204.748C108.649 204.748 109.048 204.685 109.39 204.559C109.74 204.424 110.01 204.236 110.198 203.993C110.387 203.751 110.481 203.477 110.481 203.171C110.481 202.749 110.333 202.426 110.037 202.201C109.74 201.976 109.25 201.806 108.568 201.689L106.991 201.433C106.129 201.28 105.482 201.002 105.051 200.598C104.629 200.193 104.417 199.654 104.417 198.981C104.417 198.442 104.561 197.97 104.849 197.566C105.136 197.152 105.54 196.834 106.061 196.609C106.591 196.384 107.202 196.272 107.894 196.272C108.577 196.272 109.246 196.384 109.902 196.609C110.567 196.825 111.164 197.139 111.694 197.552L110.912 198.63C109.897 197.858 108.869 197.471 107.827 197.471C107.413 197.471 107.054 197.53 106.749 197.647C106.443 197.763 106.205 197.929 106.034 198.145C105.864 198.352 105.778 198.594 105.778 198.873C105.778 199.259 105.909 199.555 106.169 199.762C106.43 199.96 106.861 200.103 107.463 200.193L108.985 200.449C109.983 200.611 110.715 200.903 111.182 201.325C111.649 201.747 111.883 202.327 111.883 203.063C111.883 203.638 111.725 204.146 111.411 204.586C111.097 205.017 110.656 205.354 110.09 205.597C109.524 205.839 108.869 205.961 108.123 205.961Z" fill="#9CA3AF"/>
<path d="M114.608 204.559H116.549C117.043 204.559 117.501 204.474 117.923 204.303C118.345 204.123 118.714 203.881 119.028 203.575C119.351 203.261 119.599 202.897 119.769 202.484C119.949 202.062 120.039 201.604 120.039 201.11C120.039 200.624 119.949 200.171 119.769 199.749C119.599 199.326 119.351 198.963 119.028 198.657C118.714 198.343 118.345 198.1 117.923 197.929C117.501 197.75 117.043 197.66 116.549 197.66H114.608V204.559ZM113.193 205.826V196.393H116.522C117.231 196.393 117.887 196.515 118.489 196.757C119.091 196.991 119.616 197.319 120.066 197.741C120.515 198.163 120.865 198.662 121.117 199.237C121.368 199.811 121.494 200.436 121.494 201.11C121.494 201.792 121.368 202.421 121.117 202.996C120.874 203.562 120.528 204.056 120.079 204.478C119.63 204.901 119.1 205.233 118.489 205.475C117.887 205.709 117.231 205.826 116.522 205.826H113.193Z" fill="#9CA3AF"/>
<path d="M121.554 205.826L125.448 196.393H127.119L130.973 205.826H129.437L128.345 203.063H124.127L123.022 205.826H121.554ZM124.586 201.891H127.887L126.243 197.741L124.586 201.891Z" fill="#9CA3AF"/>
<path d="M139.018 206.136L138.371 205.354C138.021 205.543 137.643 205.696 137.239 205.812C136.835 205.92 136.413 205.974 135.972 205.974C135.281 205.974 134.634 205.853 134.032 205.61C133.439 205.359 132.918 205.013 132.469 204.573C132.02 204.123 131.669 203.607 131.418 203.023C131.175 202.43 131.054 201.792 131.054 201.11C131.054 200.427 131.175 199.794 131.418 199.21C131.669 198.617 132.02 198.1 132.469 197.66C132.918 197.211 133.439 196.865 134.032 196.622C134.634 196.371 135.281 196.245 135.972 196.245C136.655 196.245 137.293 196.371 137.886 196.622C138.479 196.865 139 197.211 139.449 197.66C139.898 198.1 140.248 198.617 140.5 199.21C140.752 199.794 140.877 200.427 140.877 201.11C140.877 201.801 140.743 202.453 140.473 203.063C140.204 203.674 139.835 204.2 139.368 204.64L140.338 205.826L139.018 206.136ZM135.972 204.667C136.251 204.667 136.516 204.636 136.767 204.573C137.028 204.51 137.271 204.415 137.495 204.29L136.282 202.821L137.616 202.498L138.492 203.562C138.789 203.248 139.018 202.879 139.179 202.457C139.35 202.035 139.436 201.586 139.436 201.11C139.436 200.598 139.346 200.126 139.166 199.695C138.986 199.264 138.739 198.891 138.425 198.576C138.11 198.253 137.742 198.001 137.32 197.822C136.907 197.642 136.458 197.552 135.972 197.552C135.478 197.552 135.02 197.642 134.598 197.822C134.176 198.001 133.807 198.253 133.493 198.576C133.179 198.891 132.932 199.264 132.752 199.695C132.581 200.126 132.496 200.598 132.496 201.11C132.496 201.613 132.581 202.084 132.752 202.524C132.932 202.956 133.179 203.333 133.493 203.656C133.807 203.971 134.176 204.218 134.598 204.397C135.02 204.577 135.478 204.667 135.972 204.667Z" fill="#9CA3AF"/>
<mask id="path-7-inside-1_2114_301" fill="white">
<path d="M146.268 190.271H194.721C197.698 190.271 200.111 192.684 200.111 195.661V206.72C200.111 209.697 197.698 212.11 194.721 212.11H146.268V190.271Z"/>
</mask>
<path d="M146.268 190.271H194.721C197.698 190.271 200.111 192.684 200.111 195.661V206.72C200.111 209.697 197.698 212.11 194.721 212.11H146.268V190.271Z" fill="#777777" fill-opacity="0.3"/>
<path d="M146.268 189.597H194.721C198.07 189.597 200.785 192.312 200.785 195.661L199.437 195.661C199.437 193.056 197.326 190.945 194.721 190.945H146.268V189.597ZM200.785 206.72C200.785 210.069 198.07 212.784 194.721 212.784H146.268V211.437H194.721C197.326 211.437 199.437 209.325 199.437 206.72L200.785 206.72ZM146.268 212.11V190.271V212.11ZM194.721 189.597C198.07 189.597 200.785 192.312 200.785 195.661V206.72C200.785 210.069 198.07 212.784 194.721 212.784L194.721 211.437C197.326 211.437 199.437 209.325 199.437 206.72V195.661C199.437 193.056 197.326 190.945 194.721 190.945L194.721 189.597Z" fill="#9CA3AF" fill-opacity="0.6" mask="url(#path-7-inside-1_2114_301)"/>
<path d="M154.906 206.81V205.638C154.268 205.584 153.67 205.431 153.113 205.179C152.557 204.919 152.071 204.573 151.658 204.142L152.413 203.226C153.122 203.953 153.953 204.389 154.906 204.533V201.689L154.326 201.568C153.437 201.388 152.799 201.119 152.413 200.76C152.036 200.4 151.847 199.888 151.847 199.223C151.847 198.72 151.973 198.28 152.224 197.903C152.485 197.526 152.844 197.234 153.302 197.027C153.76 196.82 154.295 196.713 154.906 196.704V195.572H155.674V196.731C156.204 196.794 156.725 196.919 157.237 197.108C157.758 197.297 158.238 197.544 158.679 197.849L158.059 198.873C157.646 198.604 157.241 198.388 156.846 198.226C156.451 198.056 156.06 197.939 155.674 197.876V200.598L156.24 200.692C157.201 200.899 157.884 201.182 158.288 201.541C158.692 201.901 158.894 202.404 158.894 203.05C158.894 203.553 158.76 203.998 158.49 204.384C158.221 204.762 157.843 205.063 157.358 205.287C156.882 205.503 156.321 205.624 155.674 205.651V206.81H154.906ZM154.906 200.463V197.822C154.367 197.831 153.931 197.952 153.599 198.186C153.266 198.419 153.1 198.729 153.1 199.116C153.1 199.367 153.149 199.578 153.248 199.749C153.347 199.92 153.513 200.059 153.747 200.167C153.98 200.266 154.295 200.355 154.69 200.436L154.906 200.463ZM155.674 204.573C156.24 204.537 156.702 204.393 157.062 204.142C157.421 203.881 157.601 203.549 157.601 203.145C157.601 202.893 157.547 202.687 157.439 202.525C157.34 202.363 157.165 202.228 156.913 202.121C156.671 202.013 156.325 201.918 155.876 201.838L155.674 201.797V204.573Z" fill="#9CA3AF"/>
<path d="M159.286 205.907L163.18 196.475H164.851L168.705 205.907H167.169L166.077 203.145H161.859L160.755 205.907H159.286ZM162.318 201.972H165.619L163.975 197.822L162.318 201.972Z" fill="#9CA3AF"/>
<path d="M170.567 205.907V197.728H167.252V196.475H175.297V197.728H171.982V205.907H170.567Z" fill="#9CA3AF"/>
<path d="M180.336 206.055C179.654 206.055 179.016 205.934 178.423 205.691C177.83 205.44 177.305 205.094 176.846 204.654C176.397 204.205 176.047 203.688 175.795 203.104C175.553 202.511 175.432 201.874 175.432 201.191C175.432 200.508 175.553 199.875 175.795 199.291C176.047 198.698 176.397 198.181 176.846 197.741C177.305 197.292 177.83 196.946 178.423 196.704C179.016 196.452 179.654 196.326 180.336 196.326C181.019 196.326 181.657 196.452 182.25 196.704C182.852 196.946 183.377 197.292 183.826 197.741C184.276 198.181 184.626 198.698 184.877 199.291C185.129 199.875 185.255 200.508 185.255 201.191C185.255 201.874 185.129 202.511 184.877 203.104C184.626 203.688 184.276 204.205 183.826 204.654C183.377 205.094 182.852 205.44 182.25 205.691C181.657 205.934 181.019 206.055 180.336 206.055ZM180.35 204.748C180.835 204.748 181.284 204.658 181.697 204.479C182.12 204.299 182.488 204.052 182.802 203.738C183.117 203.414 183.364 203.037 183.543 202.606C183.723 202.166 183.813 201.694 183.813 201.191C183.813 200.679 183.723 200.207 183.543 199.776C183.364 199.345 183.117 198.972 182.802 198.658C182.488 198.334 182.12 198.083 181.697 197.903C181.284 197.723 180.835 197.633 180.35 197.633C179.856 197.633 179.398 197.723 178.975 197.903C178.553 198.083 178.185 198.334 177.87 198.658C177.556 198.972 177.309 199.345 177.129 199.776C176.959 200.207 176.873 200.679 176.873 201.191C176.873 201.694 176.959 202.166 177.129 202.606C177.309 203.037 177.556 203.414 177.87 203.738C178.185 204.052 178.553 204.299 178.975 204.479C179.398 204.658 179.856 204.748 180.35 204.748Z" fill="#9CA3AF"/>
<path d="M186.745 205.907V196.475H188.119L193.388 203.482V196.475H194.722V205.907H193.482L188.092 198.684V205.907H186.745Z" fill="#9CA3AF"/>
</svg>
